<svg width="18" height="18" viewBox="0 0 18 18" fill="none" xmlns="http://www.w3.org/2000/svg">
<g filter="url(#filter0_dii_8_2)">
<circle cx="9" cy="9" r="7" fill="#3C3D41"/>
<circle cx="9" cy="9" r="6.5" stroke="#222222" stroke-opacity="0.8"/>
</g>
<path d="M6.93619 11.6615C6.79588 11.6615 6.69918 11.5207 6.74949 11.3898L8.59351 6.58809C8.65287 6.43352 8.80133 6.3315 8.96692 6.3315H9.18342C9.34582 6.3315 9.4921 6.42969 9.55361 6.57998L11.5205 11.3857C11.5743 11.5173 11.4776 11.6615 11.3354 11.6615H11.1044C10.939 11.6615 10.7906 11.5596 10.7312 11.4052L10.2575 10.1753C10.2278 10.0981 10.1536 10.0472 10.0708 10.0472H8.11967C8.0355 10.0472 7.96034 10.0999 7.93165 10.179L7.4897 11.3978C7.43231 11.5561 7.28199 11.6615 7.11366 11.6615H6.93619ZM8.28419 9.20262C8.23524 9.33336 8.33189 9.47275 8.47149 9.47275H9.7009C9.84068 9.47275 9.93734 9.33303 9.88805 9.20223L9.43373 7.99665C9.39153 7.88511 9.35202 7.77851 9.31521 7.67687C9.24375 7.47952 8.91035 7.4916 8.84455 7.6909C8.82046 7.76385 8.79508 7.83668 8.7684 7.9094L8.28419 9.20262Z" fill="#D7D7D7"/>
<defs>
<filter id="filter0_dii_8_2" x="0" y="0" width="18" height="18" filterUnits="userSpaceOnUse" color-interpolation-filters="sRGB">
<feFlood flood-opacity="0" result="BackgroundImageFix"/>
<feColorMatrix in="SourceAlpha" type="matrix" values="0 0 0 0 0 0 0 0 0 0 0 0 0 0 0 0 0 0 127 0" result="hardAlpha"/>
<feOffset/>
<feGaussianBlur stdDeviation="1"/>
<feColorMatrix type="matrix" values="0 0 0 0 0 0 0 0 0 0 0 0 0 0 0 0 0 0 0.4 0"/>
<feBlend mode="normal" in2="BackgroundImageFix" result="effect1_dropShadow_8_2"/>
<feBlend mode="normal" in="SourceGraphic" in2="effect1_dropShadow_8_2" result="shape"/>
<feColorMatrix in="SourceAlpha" type="matrix" values="0 0 0 0 0 0 0 0 0 0 0 0 0 0 0 0 0 0 127 0" result="hardAlpha"/>
<feOffset dy="2"/>
<feGaussianBlur stdDeviation="1"/>
<feComposite in2="hardAlpha" operator="arithmetic" k2="-1" k3="1"/>
<feColorMatrix type="matrix" values="0 0 0 0 1 0 0 0 0 1 0 0 0 0 1 0 0 0 0.25 0"/>
<feBlend mode="normal" in2="shape" result="effect2_innerShadow_8_2"/>
<feColorMatrix in="SourceAlpha" type="matrix" values="0 0 0 0 0 0 0 0 0 0 0 0 0 0 0 0 0 0 127 0" result="hardAlpha"/>
<feOffset dx="-1" dy="-2"/>
<feGaussianBlur stdDeviation="1"/>
<feComposite in2="hardAlpha" operator="arithmetic" k2="-1" k3="1"/>
<feColorMatrix type="matrix" values="0 0 0 0 0 0 0 0 0 0 0 0 0 0 0 0 0 0 0.4 0"/>
<feBlend mode="darken" in2="effect2_innerShadow_8_2" result="effect3_innerShadow_8_2"/>
</filter>
</defs>
</svg>
