<svg width="16" height="8" viewBox="0 0 16 8" fill="none" xmlns="http://www.w3.org/2000/svg">
<g filter="url(#filter0_di_11_55)">
<rect x="2" y="2" width="12" height="4" rx="0.5" fill="#3C3D41"/>
<rect x="2.25" y="2.25" width="11.5" height="3.5" rx="0.25" stroke="#222222" stroke-opacity="0.8" stroke-width="0.5"/>
</g>
<path d="M4.06201 4.53418C4.06201 4.50977 4.05664 4.48779 4.0459 4.46826C4.03613 4.44775 4.02002 4.42969 3.99756 4.41406C3.9751 4.39746 3.94482 4.38184 3.90674 4.36719C3.86963 4.35254 3.82373 4.33887 3.76904 4.32617C3.65576 4.2998 3.55908 4.27148 3.479 4.24121C3.39893 4.21094 3.33398 4.17578 3.28418 4.13574C3.23438 4.09473 3.19775 4.0459 3.17432 3.98926C3.15088 3.93164 3.13916 3.86328 3.13916 3.78418C3.13916 3.70801 3.15576 3.63867 3.18896 3.57617C3.22217 3.5127 3.26855 3.4585 3.32812 3.41357C3.38867 3.36768 3.45898 3.33252 3.53906 3.30811C3.62012 3.28271 3.70801 3.27002 3.80273 3.27002C3.94141 3.27002 4.06543 3.29053 4.1748 3.33154C4.28516 3.37158 4.37207 3.43115 4.43555 3.51025C4.49902 3.58936 4.53076 3.68799 4.53076 3.80615H4.03711C4.03711 3.77295 4.02734 3.7417 4.00781 3.7124C3.98926 3.68311 3.96289 3.65918 3.92871 3.64062C3.89453 3.62207 3.85352 3.61279 3.80566 3.61279C3.75781 3.61279 3.71875 3.62109 3.68848 3.6377C3.6582 3.6543 3.63574 3.67432 3.62109 3.69775C3.60742 3.72021 3.60059 3.7417 3.60059 3.76221C3.60059 3.78369 3.60498 3.80322 3.61377 3.8208C3.62256 3.8374 3.63721 3.85303 3.65771 3.86768C3.67822 3.88135 3.70508 3.89453 3.73828 3.90723C3.77246 3.91992 3.81396 3.93262 3.86279 3.94531C3.9751 3.96875 4.07275 3.99658 4.15576 4.02881C4.23877 4.06006 4.30713 4.09814 4.36084 4.14307C4.41553 4.18701 4.45605 4.23975 4.48242 4.30127C4.50977 4.36279 4.52344 4.43506 4.52344 4.51807C4.52344 4.59912 4.50732 4.6709 4.4751 4.7334C4.44287 4.7959 4.39648 4.84863 4.33594 4.8916C4.27637 4.93457 4.20459 4.96729 4.12061 4.98975C4.03662 5.01221 3.94287 5.02344 3.83936 5.02344C3.74658 5.02344 3.65479 5.01318 3.56396 4.99268C3.47412 4.97119 3.39258 4.9375 3.31934 4.8916C3.24707 4.8457 3.18896 4.78613 3.14502 4.71289C3.10205 4.63867 3.08057 4.54932 3.08057 4.44482H3.57568C3.57568 4.48682 3.58057 4.52295 3.59033 4.55322C3.60107 4.5835 3.61768 4.6084 3.64014 4.62793C3.66357 4.64648 3.69434 4.66016 3.73242 4.66895C3.77051 4.67773 3.81689 4.68213 3.87158 4.68213C3.92529 4.68213 3.96582 4.67383 3.99316 4.65723C4.02051 4.63965 4.03857 4.61963 4.04736 4.59717C4.05713 4.57373 4.06201 4.55273 4.06201 4.53418ZM5.70703 3.29346V5H5.20898V3.29346H5.70703ZM6.24902 3.29346V3.67432H4.68311V3.29346H6.24902ZM7.16602 3.83398L6.77197 5H6.27393L6.93604 3.29346H7.27881L7.16602 3.83398ZM7.58789 5L7.1792 3.83691L7.06348 3.29346H7.41211L8.08447 5H7.58789ZM7.59375 4.36426V4.70117H6.68408V4.36426H7.59375ZM8.18701 3.29346H8.94287C9.04834 3.29346 9.14453 3.3042 9.23145 3.32568C9.31836 3.34717 9.39307 3.37939 9.45557 3.42236C9.51807 3.46436 9.56592 3.51709 9.59912 3.58057C9.6333 3.64404 9.65039 3.71777 9.65039 3.80176C9.65039 3.90918 9.63379 3.99658 9.60059 4.06396C9.56836 4.13135 9.52393 4.18555 9.46729 4.22656C9.41064 4.26758 9.3457 4.30322 9.27246 4.3335L9.104 4.43457H8.48438L8.48145 4.05371H8.94287C8.98975 4.05371 9.02881 4.04688 9.06006 4.0332C9.09229 4.01855 9.11621 3.99707 9.13184 3.96875C9.14746 3.93945 9.15527 3.90332 9.15527 3.86035C9.15527 3.81934 9.14648 3.78516 9.12891 3.75781C9.11133 3.73047 9.08643 3.70996 9.0542 3.69629C9.02295 3.68164 8.98584 3.67432 8.94287 3.67432H8.68213V5H8.18701V3.29346ZM9.17432 5L8.78027 4.25L9.30615 4.24561L9.70752 4.98096V5H9.17432ZM10.8281 3.29346V5H10.3301V3.29346H10.8281ZM11.3701 3.29346V3.67432H9.8042V3.29346H11.3701Z" fill="white"/>
<defs>
<filter id="filter0_di_11_55" x="0" y="0" width="16" height="8" filterUnits="userSpaceOnUse" color-interpolation-filters="sRGB">
<feFlood flood-opacity="0" result="BackgroundImageFix"/>
<feColorMatrix in="SourceAlpha" type="matrix" values="0 0 0 0 0 0 0 0 0 0 0 0 0 0 0 0 0 0 127 0" result="hardAlpha"/>
<feOffset/>
<feGaussianBlur stdDeviation="1"/>
<feColorMatrix type="matrix" values="0 0 0 0 0 0 0 0 0 0 0 0 0 0 0 0 0 0 0.4 0"/>
<feBlend mode="normal" in2="BackgroundImageFix" result="effect1_dropShadow_11_55"/>
<feBlend mode="normal" in="SourceGraphic" in2="effect1_dropShadow_11_55" result="shape"/>
<feColorMatrix in="SourceAlpha" type="matrix" values="0 0 0 0 0 0 0 0 0 0 0 0 0 0 0 0 0 0 127 0" result="hardAlpha"/>
<feOffset dy="1"/>
<feGaussianBlur stdDeviation="0.5"/>
<feComposite in2="hardAlpha" operator="arithmetic" k2="-1" k3="1"/>
<feColorMatrix type="matrix" values="0 0 0 0 0.821163 0 0 0 0 0.831031 0 0 0 0 0.845833 0 0 0 0.3 0"/>
<feBlend mode="normal" in2="shape" result="effect2_innerShadow_11_55"/>
</filter>
</defs>
</svg>
