<svg width="16" height="8" viewBox="0 0 16 8" fill="none" xmlns="http://www.w3.org/2000/svg">
<g filter="url(#filter0_di_11_55)">
<rect x="2" y="2" width="12" height="4" rx="0.5" fill="#3C3D41"/>
<rect x="2.25" y="2.25" width="11.5" height="3.5" rx="0.25" stroke="#222222" stroke-opacity="0.8" stroke-width="0.5"/>
</g>
<path d="M4.06201 4.53418C4.06201 4.50977 4.05664 4.48779 4.0459 4.46826C4.03613 4.44775 4.02002 4.42969 3.99756 4.41406C3.9751 4.39746 3.94482 4.38184 3.90674 4.36719C3.86963 4.35254 3.82373 4.33887 3.76904 4.32617C3.65576 4.2998 3.55908 4.27148 3.479 4.24121C3.39893 4.21094 3.33398 4.17578 3.28418 4.13574C3.23438 4.09473 3.19775 4.0459 3.17432 3.98926C3.15088 3.93164 3.13916 3.86328 3.13916 3.78418C3.13916 3.70801 3.15576 3.63867 3.18896 3.57617C3.22217 3.5127 3.26855 3.4585 3.32812 3.41357C3.38867 3.36768 3.45898 3.33252 3.53906 3.30811C3.62012 3.28271 3.70801 3.27002 3.80273 3.27002C3.94141 3.27002 4.06543 3.29053 4.1748 3.33154C4.28516 3.37158 4.37207 3.43115 4.43555 3.51025C4.49902 3.58936 4.53076 3.68799 4.53076 3.80615H4.03711C4.03711 3.77295 4.02734 3.7417 4.00781 3.7124C3.98926 3.68311 3.96289 3.65918 3.92871 3.64062C3.89453 3.62207 3.85352 3.61279 3.80566 3.61279C3.75781 3.61279 3.71875 3.62109 3.68848 3.6377C3.6582 3.6543 3.63574 3.67432 3.62109 3.69775C3.60742 3.72021 3.60059 3.7417 3.60059 3.76221C3.60059 3.78369 3.60498 3.80322 3.61377 3.8208C3.62256 3.8374 3.63721 3.85303 3.65771 3.86768C3.67822 3.88135 3.70508 3.89453 3.73828 3.90723C3.77246 3.91992 3.81396 3.93262 3.86279 3.94531C3.9751 3.96875 4.07275 3.99658 4.15576 4.02881C4.23877 4.06006 4.30713 4.09814 4.36084 4.14307C4.41553 4.18701 4.45605 4.23975 4.48242 4.30127C4.50977 4.36279 4.52344 4.43506 4.52344 4.51807C4.52344 4.59912 4.50732 4.6709 4.4751 4.7334C4.44287 4.7959 4.39648 4.84863 4.33594 4.8916C4.27637 4.93457 4.20459 4.96729 4.12061 4.98975C4.03662 5.01221 3.94287 5.02344 3.83936 5.02344C3.74658 5.02344 3.65479 5.01318 3.56396 4.99268C3.47412 4.97119 3.39258 4.9375 3.31934 4.8916C3.24707 4.8457 3.18896 4.78613 3.14502 4.71289C3.10205 4.63867 3.08057 4.54932 3.08057 4.44482H3.57568C3.57568 4.48682 3.58057 4.52295 3.59033 4.55322C3.60107 4.5835 3.61768 4.6084 3.64014 4.62793C3.66357 4.64648 3.69434 4.66016 3.73242 4.66895C3.77051 4.67773 3.81689 4.68213 3.87158 4.68213C3.92529 4.68213 3.96582 4.67383 3.99316 4.65723C4.02051 4.63965 4.03857 4.61963 4.04736 4.59717C4.05713 4.57373 4.06201 4.55273 4.06201 4.53418ZM6.0498 4.62061V5H5.06543V4.62061H6.0498ZM5.25439 3.29346V5H4.75928V3.29346H5.25439ZM5.92529 3.92773V4.30859H5.06543V3.92773H5.92529ZM6.05713 3.29346V3.67432H5.06543V3.29346H6.05713ZM7.43555 4.62061V5H6.50391V4.62061H7.43555ZM6.69287 3.29346V5H6.19775V3.29346H6.69287ZM8.88867 4.62061V5H7.9043V4.62061H8.88867ZM8.09326 3.29346V5H7.59814V3.29346H8.09326ZM8.76416 3.92773V4.30859H7.9043V3.92773H8.76416ZM8.896 3.29346V3.67432H7.9043V3.29346H8.896ZM10.0635 4.40381H10.5586C10.5537 4.52979 10.5181 4.63916 10.4517 4.73193C10.3862 4.82471 10.2959 4.89648 10.1807 4.94727C10.0664 4.99805 9.93359 5.02344 9.78223 5.02344C9.65527 5.02344 9.54248 5.00439 9.44385 4.96631C9.34619 4.92725 9.26318 4.87109 9.19482 4.79785C9.12744 4.72461 9.07617 4.63574 9.04102 4.53125C9.00586 4.42676 8.98828 4.30811 8.98828 4.17529V4.11963C8.98828 3.98682 9.00684 3.86816 9.04395 3.76367C9.08105 3.6582 9.13379 3.56885 9.20215 3.49561C9.27148 3.42139 9.35352 3.36523 9.44824 3.32715C9.54395 3.28809 9.65039 3.26855 9.76758 3.26855C9.93359 3.26855 10.0732 3.29639 10.1865 3.35205C10.3008 3.40771 10.3892 3.4834 10.4517 3.5791C10.5142 3.6748 10.5508 3.7832 10.5615 3.9043H10.0679C10.0688 3.86035 10.0596 3.81885 10.04 3.77979C10.0215 3.74072 9.99023 3.70947 9.94629 3.68604C9.90234 3.66162 9.84277 3.64941 9.76758 3.64941C9.7207 3.64941 9.6792 3.65869 9.64307 3.67725C9.60791 3.69482 9.57861 3.72266 9.55518 3.76074C9.53174 3.79883 9.51367 3.84766 9.50098 3.90723C9.48926 3.96582 9.4834 4.03613 9.4834 4.11816V4.17529C9.4834 4.26025 9.48877 4.33301 9.49951 4.39355C9.51025 4.45312 9.52734 4.50146 9.55078 4.53857C9.5752 4.57471 9.60645 4.60156 9.64453 4.61914C9.68262 4.63574 9.72852 4.64404 9.78223 4.64404C9.83984 4.64404 9.88965 4.63623 9.93164 4.62061C9.97461 4.604 10.0078 4.57812 10.0312 4.54297C10.0547 4.50684 10.0654 4.46045 10.0635 4.40381ZM11.6836 3.29346V5H11.1855V3.29346H11.6836ZM12.2256 3.29346V3.67432H10.6597V3.29346H12.2256Z" fill="white"/>
<defs>
<filter id="filter0_di_11_55" x="0" y="0" width="16" height="8" filterUnits="userSpaceOnUse" color-interpolation-filters="sRGB">
<feFlood flood-opacity="0" result="BackgroundImageFix"/>
<feColorMatrix in="SourceAlpha" type="matrix" values="0 0 0 0 0 0 0 0 0 0 0 0 0 0 0 0 0 0 127 0" result="hardAlpha"/>
<feOffset/>
<feGaussianBlur stdDeviation="1"/>
<feColorMatrix type="matrix" values="0 0 0 0 0 0 0 0 0 0 0 0 0 0 0 0 0 0 0.4 0"/>
<feBlend mode="normal" in2="BackgroundImageFix" result="effect1_dropShadow_11_55"/>
<feBlend mode="normal" in="SourceGraphic" in2="effect1_dropShadow_11_55" result="shape"/>
<feColorMatrix in="SourceAlpha" type="matrix" values="0 0 0 0 0 0 0 0 0 0 0 0 0 0 0 0 0 0 127 0" result="hardAlpha"/>
<feOffset dy="1"/>
<feGaussianBlur stdDeviation="0.5"/>
<feComposite in2="hardAlpha" operator="arithmetic" k2="-1" k3="1"/>
<feColorMatrix type="matrix" values="0 0 0 0 0.821163 0 0 0 0 0.831031 0 0 0 0 0.845833 0 0 0 0.3 0"/>
<feBlend mode="normal" in2="shape" result="effect2_innerShadow_11_55"/>
</filter>
</defs>
</svg>
