<svg width="495" height="212" viewBox="0 0 495 212" fill="none" xmlns="http://www.w3.org/2000/svg">
<g filter="url(#filter0_ii_57_7512)">
<path d="M77.5 5.5C77.5 4.39543 76.6046 3.5 75.5 3.5H52.5C30.4086 3.5 12.5 21.4086 12.5 43.5V158.5C12.5 180.591 30.4086 198.5 52.5 198.5H75.5C76.6046 198.5 77.5 197.605 77.5 196.5V5.5Z" fill="url(#paint0_linear_57_7512)"/>
<path d="M77.5 5.5C77.5 4.39543 76.6046 3.5 75.5 3.5H52.5C30.4086 3.5 12.5 21.4086 12.5 43.5V158.5C12.5 180.591 30.4086 198.5 52.5 198.5H75.5C76.6046 198.5 77.5 197.605 77.5 196.5V5.5Z" fill="url(#paint1_linear_57_7512)"/>
</g>
<path d="M119.5 1.5C119.5 0.947717 119.948 1 120.5 1H128.5C128.605 1 128.706 0.998118 128.801 0.998845C129.353 1.00307 129.948 1.5 130.5 1.5H134.5C135.052 1.5 135.647 1.00307 136.199 0.998843C136.294 0.998116 136.395 1 136.5 1H144.5C145.052 1 145.5 0.947717 145.5 1.5V2.5H119.5V1.5Z" fill="url(#paint2_linear_57_7512)"/>
<path d="M119.5 1.5C119.5 0.947717 119.948 1 120.5 1H128.5C128.605 1 128.706 0.998118 128.801 0.998845C129.353 1.00307 129.948 1.5 130.5 1.5H134.5C135.052 1.5 135.647 1.00307 136.199 0.998843C136.294 0.998116 136.395 1 136.5 1H144.5C145.052 1 145.5 0.947717 145.5 1.5V2.5H119.5V1.5Z" fill="url(#paint3_linear_57_7512)" fill-opacity="0.5"/>
<path fill-rule="evenodd" clip-rule="evenodd" d="M411.5 2.5C411.5 2.22386 411.276 2 411 2H84C83.7239 2 83.5 2.22386 83.5 2.5V4.81971C83.5 6.57613 82.0761 8 80.3197 8C79.5545 8 78.8978 8.54501 78.7568 9.2971L78.375 11.3333C78.3025 11.7199 77.965 12 77.5717 12V12C77.5321 12 77.5 12.0321 77.5 12.0717V194C77.5 195.657 78.8431 197 80.5 197H414.5C416.157 197 417.5 195.657 417.5 194V12.0717C417.5 12.0321 417.468 12 417.428 12V12C417.035 12 416.697 11.7199 416.625 11.3333L416.243 9.2971C416.102 8.54501 415.445 8 414.68 8C412.924 8 411.5 6.57613 411.5 4.81971V2.5Z" fill="url(#paint4_linear_57_7512)"/>
<rect x="90.5" y="12" width="313" height="174" rx="6" fill="black"/>
<rect x="115.5" y="29" width="263" height="140" rx="2" fill="url(#paint5_linear_57_7512)"/>
<g filter="url(#filter1_ii_57_7512)">
<path d="M417.5 5.5C417.5 4.39543 418.395 3.5 419.5 3.5H442.5C464.591 3.5 482.5 21.4086 482.5 43.5V158.5C482.5 180.591 464.591 198.5 442.5 198.5H419.5C418.395 198.5 417.5 197.605 417.5 196.5V5.5Z" fill="url(#paint6_linear_57_7512)"/>
<path d="M417.5 5.5C417.5 4.39543 418.395 3.5 419.5 3.5H442.5C464.591 3.5 482.5 21.4086 482.5 43.5V158.5C482.5 180.591 464.591 198.5 442.5 198.5H419.5C418.395 198.5 417.5 197.605 417.5 196.5V5.5Z" fill="url(#paint7_linear_57_7512)"/>
</g>
<defs>
<filter id="filter0_ii_57_7512" x="10.5" y="1.5" width="67" height="200" filterUnits="userSpaceOnUse" color-interpolation-filters="sRGB">
<feFlood flood-opacity="0" result="BackgroundImageFix"/>
<feBlend mode="normal" in="SourceGraphic" in2="BackgroundImageFix" result="shape"/>
<feColorMatrix in="SourceAlpha" type="matrix" values="0 0 0 0 0 0 0 0 0 0 0 0 0 0 0 0 0 0 127 0" result="hardAlpha"/>
<feOffset dx="-2" dy="-2"/>
<feGaussianBlur stdDeviation="4"/>
<feComposite in2="hardAlpha" operator="arithmetic" k2="-1" k3="1"/>
<feColorMatrix type="matrix" values="0 0 0 0 0 0 0 0 0 0 0 0 0 0 0 0 0 0 0.25 0"/>
<feBlend mode="darken" in2="shape" result="effect1_innerShadow_57_7512"/>
<feColorMatrix in="SourceAlpha" type="matrix" values="0 0 0 0 0 0 0 0 0 0 0 0 0 0 0 0 0 0 127 0" result="hardAlpha"/>
<feOffset dy="3"/>
<feGaussianBlur stdDeviation="2"/>
<feComposite in2="hardAlpha" operator="arithmetic" k2="-1" k3="1"/>
<feColorMatrix type="matrix" values="0 0 0 0 1 0 0 0 0 1 0 0 0 0 1 0 0 0 0.4 0"/>
<feBlend mode="lighten" in2="effect1_innerShadow_57_7512" result="effect2_innerShadow_57_7512"/>
</filter>
<filter id="filter1_ii_57_7512" x="415.5" y="1.5" width="67" height="200" filterUnits="userSpaceOnUse" color-interpolation-filters="sRGB">
<feFlood flood-opacity="0" result="BackgroundImageFix"/>
<feBlend mode="normal" in="SourceGraphic" in2="BackgroundImageFix" result="shape"/>
<feColorMatrix in="SourceAlpha" type="matrix" values="0 0 0 0 0 0 0 0 0 0 0 0 0 0 0 0 0 0 127 0" result="hardAlpha"/>
<feOffset dx="-2" dy="-2"/>
<feGaussianBlur stdDeviation="4"/>
<feComposite in2="hardAlpha" operator="arithmetic" k2="-1" k3="1"/>
<feColorMatrix type="matrix" values="0 0 0 0 0 0 0 0 0 0 0 0 0 0 0 0 0 0 0.25 0"/>
<feBlend mode="darken" in2="shape" result="effect1_innerShadow_57_7512"/>
<feColorMatrix in="SourceAlpha" type="matrix" values="0 0 0 0 0 0 0 0 0 0 0 0 0 0 0 0 0 0 127 0" result="hardAlpha"/>
<feOffset dy="3"/>
<feGaussianBlur stdDeviation="2"/>
<feComposite in2="hardAlpha" operator="arithmetic" k2="-1" k3="1"/>
<feColorMatrix type="matrix" values="0 0 0 0 1 0 0 0 0 1 0 0 0 0 1 0 0 0 0.4 0"/>
<feBlend mode="lighten" in2="effect1_innerShadow_57_7512" result="effect2_innerShadow_57_7512"/>
</filter>
<linearGradient id="paint0_linear_57_7512" x1="45" y1="3.5" x2="45" y2="198.5" gradientUnits="userSpaceOnUse">
<stop stop-color="#8D949C"/>
<stop offset="0.291667" stop-color="#838A92"/>
<stop offset="1" stop-color="#6D747C"/>
</linearGradient>
<linearGradient id="paint1_linear_57_7512" x1="45" y1="3.5" x2="45" y2="198.5" gradientUnits="userSpaceOnUse">
<stop stop-color="#07C9E4"/>
<stop offset="0.291667" stop-color="#17C5E0"/>
<stop offset="1" stop-color="#00B5DA"/>
</linearGradient>
<linearGradient id="paint2_linear_57_7512" x1="132.5" y1="1.5" x2="132.5" y2="2.5" gradientUnits="userSpaceOnUse">
<stop stop-color="#3B3D3E"/>
<stop offset="1"/>
</linearGradient>
<linearGradient id="paint3_linear_57_7512" x1="119.5" y1="1.5" x2="145.5" y2="1.5" gradientUnits="userSpaceOnUse">
<stop stop-color="#242525"/>
<stop offset="0.546875" stop-color="#4E5968"/>
<stop offset="1" stop-color="#2A2C2C"/>
</linearGradient>
<linearGradient id="paint4_linear_57_7512" x1="247.5" y1="2" x2="247.5" y2="197" gradientUnits="userSpaceOnUse">
<stop stop-color="#4C4F54"/>
<stop offset="0.0119636" stop-color="#4D5257"/>
<stop offset="0.0219779" stop-color="#5E6669"/>
<stop offset="0.0303723" stop-color="#565B5F"/>
<stop offset="0.045285" stop-color="#303338"/>
<stop offset="0.946375" stop-color="#2D312F"/>
<stop offset="0.963984" stop-color="#3A3A3C"/>
<stop offset="0.983354" stop-color="#2A2A2C"/>
<stop offset="1" stop-color="#202123"/>
</linearGradient>
<linearGradient id="paint5_linear_57_7512" x1="202.5" y1="29" x2="367.5" y2="169" gradientUnits="userSpaceOnUse">
<stop stop-color="#27282C"/>
<stop offset="0.21875" stop-color="#2C2F38"/>
<stop offset="0.572917" stop-color="#32353F"/>
<stop offset="1" stop-color="#26272B"/>
</linearGradient>
<linearGradient id="paint6_linear_57_7512" x1="450" y1="3.5" x2="450" y2="198.5" gradientUnits="userSpaceOnUse">
<stop stop-color="#8D949C"/>
<stop offset="0.291667" stop-color="#838A92"/>
<stop offset="1" stop-color="#6D747C"/>
</linearGradient>
<linearGradient id="paint7_linear_57_7512" x1="450" y1="3.5" x2="450" y2="198.5" gradientUnits="userSpaceOnUse">
<stop stop-color="#FE6458"/>
<stop offset="0.291667" stop-color="#FD5F53"/>
<stop offset="1" stop-color="#F04F45"/>
</linearGradient>
</defs>
</svg>
